# xmcd
#
# Track frame offsets: 
#        217
#        31437
#        70812
#        100767
#        148832
#        166365
#        197455
#
# Disc length: 3762 seconds
#
# Revision: 1
# Processed by: cddbd v1.5.1PL0 Copyright (c) Steve Scherf et al.
# Submitted via: ExactAudioCopy v0.95a5
#
DISCID=5c0eb007
DTITLE=Deben Bhattacharya - Temple Music From Tibet
DYEAR=1991
DGENRE=Meditative
TTITLE0=Drugpa-ka-gyu Temple Ceremony - extract I [Tashijong, 30.10.19
TTITLE0=79]
TTITLE1=Drugpa-ka-gyu Temple Ceremony - extract II [Tashijong, 30.10.1
TTITLE1=979]
TTITLE2=Drugpa-ka-gyu Temple Ceremony - extract III [Tashijong, 30.10.
TTITLE2=1979]
TTITLE3=Temple Ceremony Of The Nyingmapa Sect [Bir, 31.10.1979]
TTITLE4=Afternoon Prayer Of The Red Hat Sect [Rumtek, 04.1975]
TTITLE5=Lhabab, Morning Prayer Of The Gelugpa [Ghoom, 11.11.1979]
TTITLE6=Jensey, Fire Ceremony Of The Gelugpa [Ghoom, 11.11.1979]
EXTD=YEAR: 1991
EXTT0=
EXTT1=
EXTT2=
EXTT3=
EXTT4=
EXTT5=
EXTT6=
PLAYORDER=
